<svg id="SvgjsSvg1001" width="256" height="256" xmlns="http://www.w3.org/2000/svg" version="1.1" xmlns:xlink="http://www.w3.org/1999/xlink" xmlns:svgjs="http://svgjs.com/svgjs"><defs id="SvgjsDefs1002"></defs><g id="SvgjsG1008"><svg xmlns="http://www.w3.org/2000/svg" enable-background="new 0 0 512 512" viewBox="0 0 512 512" width="256" height="256"><circle cx="256" cy="344" r="104" fill="#231f20" class="color231F20 svgShape"></circle><line x1="111.012" x2="111.004" y1="261.424" y2="261.419" fill="none"></line><path fill="#231f20" d="M457.841,256.667c0.108-1.932,0.159-3.664,0.159-5.358c0-50.564-36.553-92.752-84.62-101.532			c-5.958-21.094-17.746-40.231-34.246-55.206C317.413,74.856,289.286,64,259.934,64c-28.335,0-55.725,10.204-77.126,28.73
			c-15.702,13.594-27.452,31.006-34.199,50.339c-23.736,4.182-42.3,23.556-45.257,47.687C74.761,205.262,56,234.827,56,267.934
			c0,1.735,0.057,3.477,0.173,5.276c-0.115,1.826-0.173,3.662-0.173,5.479c0,0.753,0.018,1.5,0.042,2.245
			C56.014,281.839,56,282.712,56,283.58c0,47.744,38.842,86.586,86.585,86.586h211.227c0.154,0,0.309-0.002,0.463-0.004
			c0.171,0.002,0.343,0.004,0.515,0.004c56.91,0,103.21-46.3,103.21-103.211c0-0.822-0.022-1.638-0.049-2.453
			c0.027-0.809,0.049-1.619,0.049-2.435C458,260.36,457.949,258.614,457.841,256.667z M111.012,261.424l-0.008-0.005
			L111.012,261.424z" class="color231F20 svgShape"></path><path fill="#00569e" d="M128.397 222.629c-.945-2.984-1.458-6.16-1.458-9.458 0-2.04.201-4.032.574-5.963C100.235 213.957 80 238.568 80 267.934c0 2.633.182 5.223.498 7.772C83.779 249.582 103.163 228.48 128.397 222.629zM158.232 181.878c3.098 0 6.088.457 8.914 1.296 6.908-45.036 45.819-79.528 92.788-79.528 48.559 0 88.504 36.867 93.378 84.137.493-.008.982-.037 1.479-.037 41.106 0 74.893 31.313 78.822 71.387.252-2.574.388-5.184.388-7.824 0-43.746-35.464-79.209-79.21-79.209-.497 0-.985.029-1.479.037C348.438 124.867 308.492 88 259.934 88c-46.968 0-85.879 34.492-92.788 79.528-2.826-.838-5.816-1.296-8.914-1.296-17.283 0-31.292 14.01-31.292 31.292 0 2.69.357 5.294.996 7.784C131.424 191.832 143.665 181.878 158.232 181.878z" class="color00569E svgShape"></path><path fill="#00baf3" d="M158.232,181.878c3.098,0,6.088,0.457,8.914,1.296c6.908-45.036,45.819-79.528,92.788-79.528
				c48.559,0,88.504,36.867,93.378,84.137c0.493-0.008,0.982-0.037,1.479-0.037c42.927,0,77.853,34.153,79.147,76.766
				c0.025-0.814,0.062-1.625,0.062-2.445c0-43.747-35.464-79.211-79.21-79.211c-0.497,0-0.985,0.029-1.479,0.038
				c-4.874-47.27-44.819-84.137-93.378-84.137c-46.968,0-85.879,34.492-92.788,79.528c-2.826-0.838-5.816-1.296-8.914-1.296
				c-17.283,0-31.292,14.01-31.292,31.293c0,0.84,0.035,1.672,0.1,2.495C128.264,194.615,141.756,181.878,158.232,181.878z" class="color00BAF3 svgShape"></path><path fill="#52daff" d="M128.397,222.629c-0.473-1.492-0.837-3.033-1.084-4.613C100.136,224.836,80,249.396,80,278.689
				c0,0.76,0.031,1.51,0.057,2.262C81.236,252.439,101.493,228.867,128.397,222.629z" class="color52DAFF svgShape"></path><path fill="#0078da" d="M354.79,187.746c-0.497,0-0.985,0.029-1.479,0.037c-4.874-47.27-44.819-84.137-93.378-84.137
			c-46.968,0-85.879,34.492-92.788,79.528c-2.826-0.839-5.816-1.296-8.914-1.296c-17.283,0-31.292,14.01-31.292,31.292
			c0,3.298,0.513,6.474,1.458,9.458C100.67,229.059,80,253.896,80,283.58c0,34.564,28.021,62.586,62.585,62.586h211.227v-0.025
			c0.326,0.004,0.649,0.025,0.978,0.025c43.746,0,79.21-35.463,79.21-79.211C434,223.209,398.536,187.746,354.79,187.746z" class="color0078DA svgShape"></path><path fill="#00569e" d="M256,240c-57.346,0-104,46.654-104,104c0,0.724,0.013,1.445,0.028,2.166h201.785v-0.025
		c0.326,0.004,0.649,0.025,0.977,0.025c1.744,0,3.469-0.076,5.185-0.187C359.987,345.32,360,344.661,360,344
		C360,286.654,313.346,240,256,240z" class="color00569E svgShape"></path><circle cx="256" cy="344" r="80" fill="#39b54a" class="color39B54A svgShape"></circle><path fill="#009444" d="M256,272c42.841,0,77.814,33.676,79.898,76c0.066-1.325,0.102-2.658,0.102-4c0-44.183-35.817-80-80-80
			s-80,35.817-80,80c0,1.342,0.036,2.675,0.102,4C178.185,305.676,213.159,272,256,272z" class="color009444 svgShape"></path><g fill="#000000" class="color000 svgShape"><rect width="24.752" height="83.775" x="243.205" y="315.06" fill="#ffffff" class="colorFFF svgShape"></rect><rect width="70.312" height="24.752" x="204.317" y="317.234" fill="#ffffff" transform="rotate(-45.001 239.47 329.614)" class="colorFFF svgShape"></rect><rect width="24.751" height="70.312" x="259.313" y="294.454" fill="#ffffff" transform="rotate(-45.001 271.688 329.615)" class="colorFFF svgShape"></rect></g></svg></g></svg>